<?xml version="1.0" encoding="UTF-8"?>
<svg version="1.1" xmlns="http://www.w3.org/2000/svg" width="243" height="82">
<path d="M0 0 C1.06838608 0.270401 2.13677216 0.540802 3.23753357 0.81939697 C4.44942101 1.12874176 4.44942101 1.12874176 5.68579102 1.44433594 C5.05291009 9.63360098 4.41839569 17.82273718 3.78184605 26.0117178 C3.4862611 29.81496149 3.19122041 33.6182457 2.89746094 37.42163086 C2.6134816 41.09812093 2.32802378 44.77449359 2.04157829 48.45079231 C1.93302645 49.84722954 1.82499043 51.24370698 1.71750069 52.64022636 C1.15645541 59.92495705 0.55060135 67.1889593 -0.31420898 74.44433594 C-3.61420898 74.44433594 -6.91420898 74.44433594 -10.31420898 74.44433594 C-16.40531672 63.883268 -22.12593624 53.15460938 -27.70751953 42.31567383 C-30.80934917 36.29906673 -33.9805594 30.33595631 -37.31420898 24.44433594 C-39.36092992 30.00061824 -40.82678208 35.5401193 -42.04077148 41.33105469 C-42.35395683 42.7784539 -42.66777006 44.22571738 -42.98217773 45.67285156 C-43.46739396 47.90794333 -43.94133172 50.14264502 -44.38208008 52.38696289 C-46.86175394 64.89581274 -46.86175394 64.89581274 -50.39233398 68.65991211 C-52.64129896 70.15977055 -54.85956485 71.32107474 -57.31420898 72.44433594 C-58.34030273 73.15460938 -59.36639648 73.86488281 -60.42358398 74.59667969 C-61.29499023 75.18578125 -62.16639648 75.77488281 -63.06420898 76.38183594 C-63.94592773 76.98898438 -64.82764648 77.59613281 -65.73608398 78.22167969 C-68.31420898 79.44433594 -68.31420898 79.44433594 -70.84545898 79.41699219 C-74.00549158 78.17197935 -75.67494551 76.34881765 -78.06420898 73.94433594 C-85.40443395 67.59086275 -91.93049592 68.36926623 -101.31420898 68.44433594 C-103.95420898 60.52433594 -106.59420898 52.60433594 -109.31420898 44.44433594 C-115.25420898 44.11433594 -121.19420898 43.78433594 -127.31420898 43.44433594 C-128.47689549 49.1027436 -129.56711589 54.71662224 -130.31420898 60.44433594 C-128.66420898 59.78433594 -127.01420898 59.12433594 -125.31420898 58.44433594 C-125.2379804 62.40822232 -125.34604419 65.57167674 -126.31420898 69.44433594 C-132.91420898 69.44433594 -139.51420898 69.44433594 -146.31420898 69.44433594 C-146.31420898 68.12433594 -146.31420898 66.80433594 -146.31420898 65.44433594 C-145.72639648 65.25226563 -145.13858398 65.06019531 -144.53295898 64.86230469 C-141.36892508 62.84021964 -140.29979577 60.07753595 -138.81420898 56.75683594 C-138.48743164 56.0472876 -138.1606543 55.33773926 -137.82397461 54.60668945 C-132.07846462 41.80618508 -127.27739888 28.56222587 -122.31420898 15.44433594 C-124.62420898 15.77433594 -126.93420898 16.10433594 -129.31420898 16.44433594 C-128.65420898 13.47433594 -127.99420898 10.50433594 -127.31420898 7.44433594 C-121.70420898 7.44433594 -116.09420898 7.44433594 -110.31420898 7.44433594 C-109.92749023 8.47558594 -109.54077148 9.50683594 -109.14233398 10.56933594 C-108.72951172 11.66955078 -108.72951172 11.66955078 -108.30834961 12.79199219 C-107.58718094 14.71605321 -106.86729598 16.64059554 -106.14819336 18.56542969 C-105.02647579 21.56461992 -103.90103317 24.56237307 -102.77270508 27.55908203 C-102.07649931 29.41163233 -101.38476637 31.26586159 -100.69311523 33.12011719 C-97.19352342 42.40334813 -93.3047682 51.32305773 -89.31420898 60.44433594 C-89.31420898 40.64433594 -89.31420898 20.84433594 -89.31420898 0.44433594 C-74.34598698 1.59573763 -74.34598698 1.59573763 -67.71264648 2.60058594 C-66.9834903 2.70777954 -66.25433411 2.81497314 -65.50308228 2.92541504 C-63.99237776 3.14848925 -62.48198718 3.37370024 -60.97192383 3.60107422 C-58.65842963 3.94896436 -56.34386102 4.28890439 -54.02905273 4.62792969 C-52.54851588 4.8475231 -51.06804448 5.06755837 -49.58764648 5.28808594 C-48.55648209 5.43969177 -48.55648209 5.43969177 -47.50448608 5.59436035 C-44.65666304 6.02609505 -42.05439766 6.53093971 -39.31420898 7.44433594 C-38.98420898 6.45433594 -38.65420898 5.46433594 -38.31420898 4.44433594 C-35.00610148 2.77044254 -31.4082047 1.8052142 -27.87670898 0.69433594 C-26.91571289 0.365625 -25.9547168 0.03691406 -24.96459961 -0.30175781 C-15.85062412 -3.21478842 -9.14514489 -2.32310005 0 0 Z M-87.31420898 2.44433594 C-86.98420898 21.58433594 -86.65420898 40.72433594 -86.31420898 60.44433594 C-84.82920898 59.94933594 -84.82920898 59.94933594 -83.31420898 59.44433594 C-83.61198242 60.476875 -83.90975586 61.50941406 -84.21655273 62.57324219 C-84.69479127 66.24533053 -84.69479127 66.24533053 -83.17797852 68.05322266 C-81.47986613 69.61536244 -79.730005 71.00754566 -77.87670898 72.38183594 C-77.2521582 72.87490234 -76.62760742 73.36796875 -75.98413086 73.87597656 C-74.44409153 75.08684718 -72.8812044 76.26855783 -71.31420898 77.44433594 C-69.63863948 76.80037239 -67.97479357 76.12601112 -66.31420898 75.44433594 C-65.71794708 75.20479187 -65.12168518 74.9652478 -64.50735474 74.71844482 C-58.4075713 72.10699204 -52.28812907 69.05663639 -49.00579834 63.04992676 C-46.36991821 56.2784923 -45.0933306 49.18576366 -43.75170898 42.06933594 C-43.29204167 39.93135596 -42.82658809 37.79461147 -42.35522461 35.65917969 C-41.52147886 31.7665572 -40.69908517 27.87354582 -39.95654297 23.96240234 C-39.80716782 23.18426178 -39.65779266 22.40612122 -39.50389099 21.60440063 C-39.29999034 19.28241651 -39.71779344 17.67826327 -40.31420898 15.44433594 C-40.04370445 13.43487372 -39.72052989 11.4307937 -39.31420898 9.44433594 C-42.61420898 9.11433594 -45.91420898 8.78433594 -49.31420898 8.44433594 C-46.74874958 11.00979534 -44.83734231 10.98479681 -41.31420898 11.44433594 C-41.7412915 12.34861328 -42.16837402 13.25289062 -42.60839844 14.18457031 C-51.28280356 32.55708811 -59.90401088 50.9490274 -68.31420898 69.44433594 C-71.94420898 68.78433594 -75.57420898 68.12433594 -79.31420898 67.44433594 C-78.65291992 66.13078125 -77.99163086 64.81722656 -77.31030273 63.46386719 C-76.45671269 61.72854676 -75.60388791 59.99284977 -74.75170898 58.25683594 C-74.09525391 56.96036133 -74.09525391 56.96036133 -73.42553711 55.63769531 C-73.01625977 54.79658203 -72.60698242 53.95546875 -72.18530273 53.08886719 C-71.80301514 52.31905518 -71.42072754 51.54924316 -71.02685547 50.75610352 C-69.38807044 45.44001739 -72.4268741 40.40077541 -74.47436523 35.51855469 C-74.78369492 34.7709639 -75.0930246 34.02337311 -75.41172791 33.25312805 C-76.39580078 30.87757249 -77.386154 28.50469488 -78.37670898 26.13183594 C-79.0470477 24.51677451 -79.71697419 22.90154192 -80.38647461 21.28613281 C-82.0242848 17.33686877 -83.66773061 13.38999357 -85.31420898 9.44433594 C-79.86920898 8.94933594 -79.86920898 8.94933594 -74.31420898 8.44433594 C-71.01420898 16.69433594 -67.71420898 24.94433594 -64.31420898 33.44433594 C-61.47736113 32.02591201 -61.19842835 30.28266145 -59.96655273 27.38574219 C-59.52633789 26.36029297 -59.08612305 25.33484375 -58.63256836 24.27832031 C-58.17688477 23.19873047 -57.72120117 22.11914062 -57.25170898 21.00683594 C-56.3444142 18.88302808 -55.43687435 16.7593249 -54.52905273 14.63574219 C-53.92758423 13.21563843 -53.92758423 13.21563843 -53.31396484 11.7668457 C-52.68626423 10.30864889 -52.0241873 8.86429256 -51.31420898 7.44433594 C-55.95855221 6.72941206 -60.60333003 6.01740759 -65.24853516 5.30810547 C-66.82873628 5.06639521 -68.40881564 4.82388747 -69.98876953 4.58056641 C-72.25969409 4.23097387 -74.53104102 3.88425102 -76.80249023 3.53808594 C-77.50884109 3.42871704 -78.21519196 3.31934814 -78.94294739 3.20666504 C-81.76931985 2.77827986 -84.4503368 2.44433594 -87.31420898 2.44433594 Z M-24.91772461 15.7421875 C-25.85728107 16.88739513 -26.82581856 18.00936259 -27.82006836 19.10742188 C-29.40757178 20.83268335 -29.40757178 20.83268335 -31.31420898 23.44433594 C-30.98420898 24.43433594 -30.65420898 25.42433594 -30.31420898 26.44433594 C-29.32420898 26.77433594 -28.33420898 27.10433594 -27.31420898 27.44433594 C-25.56218611 25.55033879 -23.8125592 23.65421855 -22.06420898 21.75683594 C-21.57307617 21.22638672 -21.08194336 20.6959375 -20.57592773 20.14941406 C-17.68690159 17.01000565 -14.93880331 13.81256532 -12.31420898 10.44433594 C-11.57215402 17.89337173 -11.07617912 25.32054059 -10.77905273 32.79980469 C-10.73607559 33.82745438 -10.69309845 34.85510406 -10.64881897 35.91389465 C-10.51392558 39.15310988 -10.38275119 42.39246286 -10.25170898 45.63183594 C-10.16015943 47.84603889 -10.06836478 50.06023171 -9.97631836 52.27441406 C-9.75278502 57.66427442 -9.53229373 63.05425251 -9.31420898 68.44433594 C-7.00420898 68.44433594 -4.69420898 68.44433594 -2.31420898 68.44433594 C-2.55299277 60.98554122 -2.79611435 53.52690102 -3.04469967 46.06842613 C-3.16000605 42.60476415 -3.27384527 39.14106718 -3.38427734 35.67724609 C-3.51144322 31.69060452 -3.64508803 27.70419257 -3.77905273 23.71777344 C-3.81763901 22.48006195 -3.85622528 21.24235046 -3.89598083 19.96713257 C-3.93594681 18.80638214 -3.97591278 17.64563171 -4.01708984 16.44970703 C-4.0670536 14.92414688 -4.0670536 14.92414688 -4.11802673 13.36776733 C-4.32111086 10.34148684 -4.76728367 7.42606782 -5.31420898 4.44433594 C-15.20405234 2.30153654 -19.18657378 8.67216949 -24.91772461 15.7421875 Z M-119.31420898 20.44433594 C-120.31801814 23.2346864 -121.31740348 26.02648449 -122.31420898 28.81933594 C-122.60038086 29.61339844 -122.88655273 30.40746094 -123.18139648 31.22558594 C-123.45209961 31.98613281 -123.72280273 32.74667969 -124.00170898 33.53027344 C-124.25307617 34.23200684 -124.50444336 34.93374023 -124.76342773 35.65673828 C-125.41235988 37.45113705 -125.41235988 37.45113705 -125.31420898 39.44433594 C-120.69420898 39.44433594 -116.07420898 39.44433594 -111.31420898 39.44433594 C-113.17973941 32.82170293 -115.35826321 26.6563235 -118.31420898 20.44433594 C-118.64420898 20.44433594 -118.97420898 20.44433594 -119.31420898 20.44433594 Z " fill="#7879DC" transform="translate(198.314208984375,2.5556640625)"/>
<path d="M0 0 C1.06838608 0.270401 2.13677216 0.540802 3.23753357 0.81939697 C4.44942101 1.12874176 4.44942101 1.12874176 5.68579102 1.44433594 C5.05291009 9.63360098 4.41839569 17.82273718 3.78184605 26.0117178 C3.4862611 29.81496149 3.19122041 33.6182457 2.89746094 37.42163086 C2.6134816 41.09812093 2.32802378 44.77449359 2.04157829 48.45079231 C1.93302645 49.84722954 1.82499043 51.24370698 1.71750069 52.64022636 C1.15645541 59.92495705 0.55060135 67.1889593 -0.31420898 74.44433594 C-3.61420898 74.44433594 -6.91420898 74.44433594 -10.31420898 74.44433594 C-16.37251371 63.94014351 -22.06605382 53.27093845 -27.61962891 42.49145508 C-31.09234861 35.75672724 -34.65531246 29.079823 -38.31420898 22.44433594 C-38.97420898 22.44433594 -39.63420898 22.44433594 -40.31420898 22.44433594 C-41.0759429 18.12784374 -41.47484502 14.70000141 -40.31420898 10.44433594 C-40.97420898 10.11433594 -41.63420898 9.78433594 -42.31420898 9.44433594 C-42.31420898 8.78433594 -42.31420898 8.12433594 -42.31420898 7.44433594 C-41.32420898 7.44433594 -40.33420898 7.44433594 -39.31420898 7.44433594 C-38.98420898 6.45433594 -38.65420898 5.46433594 -38.31420898 4.44433594 C-35.00610148 2.77044254 -31.4082047 1.8052142 -27.87670898 0.69433594 C-26.91571289 0.365625 -25.9547168 0.03691406 -24.96459961 -0.30175781 C-15.85062412 -3.21478842 -9.14514489 -2.32310005 0 0 Z M-24.91772461 15.7421875 C-25.85728107 16.88739513 -26.82581856 18.00936259 -27.82006836 19.10742188 C-29.40757178 20.83268335 -29.40757178 20.83268335 -31.31420898 23.44433594 C-30.98420898 24.43433594 -30.65420898 25.42433594 -30.31420898 26.44433594 C-29.32420898 26.77433594 -28.33420898 27.10433594 -27.31420898 27.44433594 C-25.56218611 25.55033879 -23.8125592 23.65421855 -22.06420898 21.75683594 C-21.57307617 21.22638672 -21.08194336 20.6959375 -20.57592773 20.14941406 C-17.68690159 17.01000565 -14.93880331 13.81256532 -12.31420898 10.44433594 C-11.57215402 17.89337173 -11.07617912 25.32054059 -10.77905273 32.79980469 C-10.73607559 33.82745438 -10.69309845 34.85510406 -10.64881897 35.91389465 C-10.51392558 39.15310988 -10.38275119 42.39246286 -10.25170898 45.63183594 C-10.16015943 47.84603889 -10.06836478 50.06023171 -9.97631836 52.27441406 C-9.75278502 57.66427442 -9.53229373 63.05425251 -9.31420898 68.44433594 C-7.00420898 68.44433594 -4.69420898 68.44433594 -2.31420898 68.44433594 C-2.55299277 60.98554122 -2.79611435 53.52690102 -3.04469967 46.06842613 C-3.16000605 42.60476415 -3.27384527 39.14106718 -3.38427734 35.67724609 C-3.51144322 31.69060452 -3.64508803 27.70419257 -3.77905273 23.71777344 C-3.81763901 22.48006195 -3.85622528 21.24235046 -3.89598083 19.96713257 C-3.93594681 18.80638214 -3.97591278 17.64563171 -4.01708984 16.44970703 C-4.0670536 14.92414688 -4.0670536 14.92414688 -4.11802673 13.36776733 C-4.32111086 10.34148684 -4.76728367 7.42606782 -5.31420898 4.44433594 C-15.20405234 2.30153654 -19.18657378 8.67216949 -24.91772461 15.7421875 Z " fill="#7375E5" transform="translate(198.314208984375,2.5556640625)"/>
<path d="M0 0 C6.8371875 -0.12375 6.8371875 -0.12375 13.8125 -0.25 C15.22635986 -0.28641602 16.64021973 -0.32283203 18.09692383 -0.36035156 C28.29149224 -0.44890683 38.03461499 1.14606406 46 8 C52.81934447 16.59401724 54.89979964 24.07586996 54 35 C52.80812151 41.1176888 50.55732854 45.64081618 46 50 C39.03448203 54.5979895 33.71301428 56.15917799 25.390625 56.09765625 C24.74593262 56.09664917 24.10124023 56.09564209 23.43701172 56.09460449 C21.04132291 56.08939402 18.64565957 56.07543281 16.25 56.0625 C10.8875 56.041875 5.525 56.02125 0 56 C0 37.52 0 19.04 0 0 Z M13 4 C13 19.84 13 35.68 13 52 C25.59073644 52.36104214 25.59073644 52.36104214 35.8125 46.75 C41.93829725 39.04899775 41.76161168 31.6192598 41 22 C39.8599737 16.25568145 37.07896502 12.07896502 33 8 C26.02287875 4.03349964 26.02287875 4.03349964 13 4 Z " fill="#7074E9" transform="translate(0,15)"/>
<path d="M0 0 C1.37792969 2.20898437 1.37792969 2.20898437 2.421875 5.09375 C2.80730469 6.12371094 3.19273437 7.15367188 3.58984375 8.21484375 C4.16412109 9.84099609 4.16412109 9.84099609 4.75 11.5 C5.53481618 13.63602074 6.3211897 15.77147016 7.109375 17.90625 C7.44936523 18.85822266 7.78935547 19.81019531 8.13964844 20.79101562 C8.80616216 22.94025216 8.80616216 22.94025216 10 24 C13.3 16.41 16.6 8.82 20 1 C29 2 29 2 32 3 C29.69418296 10.62446122 26.458967 17.55364329 22.9375 24.6875 C21.76979114 27.07311707 20.60359886 29.45935849 19.44140625 31.84765625 C19.15064209 32.44467346 18.85987793 33.04169067 18.56030273 33.65679932 C15.24211074 40.50654872 12.15833166 47.46460941 9.15991211 54.4597168 C8.78487549 55.31090088 8.40983887 56.16208496 8.0234375 57.0390625 C7.70294434 57.78365723 7.38245117 58.52825195 7.05224609 59.29541016 C6 61 6 61 3 62 C0.73828125 61.44140625 0.73828125 61.44140625 -1.6875 60.5625 C-2.89986328 60.13130859 -2.89986328 60.13130859 -4.13671875 59.69140625 C-4.75160156 59.46324219 -5.36648437 59.23507813 -6 59 C-5.31267903 53.81563609 -2.86345911 49.65877429 -0.3515625 45.171875 C1.76446346 41.18264574 2.20264532 39.29244254 1 35 C0.05981912 32.50122298 -0.9124951 30.04333102 -1.94140625 27.58203125 C-2.3721067 26.53434822 -2.3721067 26.53434822 -2.81150818 25.46549988 C-3.72426179 23.24605468 -4.64279858 21.02907428 -5.5625 18.8125 C-6.4854111 16.58507338 -7.40696358 14.35713348 -8.32420349 12.12736511 C-8.8939275 10.74258681 -9.46695936 9.35916393 -10.04359436 7.97724915 C-12 3.22499279 -12 3.22499279 -12 1 C-4.30571152 -1.56476283 -4.30571152 -1.56476283 0 0 Z " fill="#7275E6" transform="translate(125,11)"/>
<path d="M0 0 C12.54 0 25.08 0 38 0 C38 13 38 13 35.375 16.4375 C34.8284375 16.9634375 34.281875 17.489375 33.71875 18.03125 C24.54594381 28.53828255 21.7429824 47.62631686 21 61 C16.71 61 12.42 61 8 61 C6.86280217 42.52053534 15.50437688 27.19299699 25 12 C16.75 12 8.5 12 0 12 C0 8.04 0 4.08 0 0 Z " fill="#7375E6" transform="translate(205,13)"/>
<path d="M0 0 C10.3765707 0.60205359 20.54595266 2.00017568 30.8125 3.5625 C32.39121281 3.79925013 33.96998859 4.03558084 35.54882812 4.27148438 C39.36662632 4.84283796 43.18353506 5.41981038 47 6 C47 6.99 47 7.98 47 9 C43.7 9 40.4 9 37 9 C37 8.67 37 8.34 37 8 C35.56950317 7.78065796 35.56950317 7.78065796 34.11010742 7.55688477 C30.57063547 7.0134609 27.03170169 6.46659999 23.49291992 5.91870117 C21.96148906 5.68208594 20.429914 5.44640199 18.89819336 5.21166992 C16.69606537 4.87403409 14.49447832 4.53304823 12.29296875 4.19140625 C11.60849167 4.08719864 10.92401459 3.98299103 10.21879578 3.87562561 C7.36616718 3.43008112 4.74623468 2.91541156 2 2 C2.0714624 2.68537842 2.1429248 3.37075684 2.21655273 4.0769043 C3.21331089 14.98727109 3.11155206 25.86648687 3.0625 36.8125 C3.05747317 38.77669156 3.05291237 40.74088438 3.04882812 42.70507812 C3.03792035 47.47008351 3.02072143 52.2350276 3 57 C2.34 57 1.68 57 1 57 C0.36700955 37.99513517 -0.17430231 19.018319 0 0 Z " fill="#B39E7B" transform="translate(109,3)"/>
<path d="M0 0 C0.93588419 3.01214476 1.00742467 5.0499775 0.33837891 8.12255859 C0.16714508 8.92374115 -0.00408875 9.72492371 -0.18051147 10.55038452 C-0.37617706 11.407742 -0.57184265 12.26509949 -0.7734375 13.1484375 C-0.97546783 14.03858551 -1.17749817 14.92873352 -1.38565063 15.84585571 C-1.81907652 17.72828079 -2.25821847 19.60939755 -2.70263672 21.48925781 C-3.36944396 24.35115382 -3.98741164 27.22099295 -4.60546875 30.09375 C-8.10784066 45.45471836 -8.10784066 45.45471836 -13.4921875 49.04296875 C-14.97550527 49.73805152 -16.47745912 50.39564834 -18 51 C-19.02609375 51.71027344 -20.0521875 52.42054687 -21.109375 53.15234375 C-21.98078125 53.74144531 -22.8521875 54.33054688 -23.75 54.9375 C-24.63171875 55.54464844 -25.5134375 56.15179688 -26.421875 56.77734375 C-29.52273028 58.24790087 -30.79780023 58.10824884 -34 57 C-36.8125 55.0625 -36.8125 55.0625 -39 53 C-39 52.34 -39 51.68 -39 51 C-35.73045798 51.56371414 -34.17424117 52.49962266 -32 55 C-27.46353917 53.42736025 -23.77141936 51.02255317 -19.8125 48.375 C-13.27013037 44 -13.27013037 44 -11 44 C-10.87165771 42.84282471 -10.74331543 41.68564941 -10.61108398 40.4934082 C-10.0846106 36.2966599 -9.22354038 32.212511 -8.22265625 28.10546875 C-8.05124619 27.39143387 -7.87983612 26.67739899 -7.70323181 25.94172668 C-7.34319873 24.44799894 -6.98091579 22.95481181 -6.61645508 21.4621582 C-6.06012252 19.17773758 -5.51506511 16.89081458 -4.97070312 14.60351562 C-4.61786279 13.14566973 -4.26437035 11.68798147 -3.91015625 10.23046875 C-3.74862564 9.54921432 -3.58709503 8.8679599 -3.42066956 8.1660614 C-2.6269996 4.95347852 -1.86000811 2.79001216 0 0 Z " fill="#A39496" transform="translate(159,24)"/>
<path d="M0 0 C1.60391602 0.16411377 1.60391602 0.16411377 3.24023438 0.33154297 C9.16150552 1.05375103 15.05742714 1.91060685 20.953125 2.81640625 C22.80357422 3.09581055 22.80357422 3.09581055 24.69140625 3.38085938 C27.6958654 3.8350218 30.69973162 4.29275782 33.703125 4.75390625 C33.703125 5.74390625 33.703125 6.73390625 33.703125 7.75390625 C30.403125 7.75390625 27.103125 7.75390625 23.703125 7.75390625 C23.703125 7.42390625 23.703125 7.09390625 23.703125 6.75390625 C13.143125 5.10390625 2.583125 3.45390625 -8.296875 1.75390625 C-4.82357221 -0.56162894 -4.01279183 -0.41128055 0 0 Z " fill="#9C90A2" transform="translate(122.296875,4.24609375)"/>
<path d="M0 0 C0.99 0.33 1.98 0.66 3 1 C-0.23118979 4.40581523 -3.93603909 6.73758169 -7.875 9.25 C-8.58269531 9.72179687 -9.29039062 10.19359375 -10.01953125 10.6796875 C-15.26637055 14.02124996 -15.26637055 14.02124996 -18.83203125 13.91796875 C-21.69291007 12.70660565 -23.74587819 11.12531485 -26 9 C-26 8.34 -26 7.68 -26 7 C-22.73045798 7.56371414 -21.17424117 8.49962266 -19 11 C-13.75776963 9.19611464 -9.51795004 6.13948729 -4.99609375 3.01367188 C-3.37865543 1.93364048 -1.69233015 0.95843268 0 0 Z " fill="#B39F7C" transform="translate(146,68)"/>
<path d="M0 0 C1.3297259 3.71065403 0.68694674 6.41674866 -0.25 10.1875 C-0.50265625 11.25355469 -0.7553125 12.31960937 -1.015625 13.41796875 C-1.34046875 14.27003906 -1.6653125 15.12210938 -2 16 C-2.99 16.33 -3.98 16.66 -5 17 C-4.35841048 14.35307023 -3.71195217 11.70750071 -3.0625 9.0625 C-2.88009766 8.30775391 -2.69769531 7.55300781 -2.50976562 6.77539062 C-1.11328125 1.11328125 -1.11328125 1.11328125 0 0 Z " fill="#A8978D" transform="translate(159,24)"/>
<path d="M0 0 C1.02328619 3.19411474 0.96256253 5.4215884 0.25 8.6875 C0.09015625 9.47511719 -0.0696875 10.26273438 -0.234375 11.07421875 C-0.61335937 12.02748047 -0.61335937 12.02748047 -1 13 C-1.99 13.33 -2.98 13.66 -4 14 C-3.71715982 12.22773547 -3.42339502 10.457212 -3.125 8.6875 C-2.96257812 7.70136719 -2.80015625 6.71523438 -2.6328125 5.69921875 C-2 3 -2 3 0 0 Z " fill="#9C95A1" transform="translate(155,40)"/>
<path d="M0 0 C0 0.99 0 1.98 0 3 C-3.3 3 -6.6 3 -10 3 C-8.0130571 -0.97388579 -3.91761109 -0.08705802 0 0 Z " fill="#BCAB6D" transform="translate(156,9)"/>
<path d="M0 0 C0.33 0.99 0.66 1.98 1 3 C-1.97 2.67 -4.94 2.34 -8 2 C-4.77208445 -0.1519437 -3.71599191 -0.20086443 0 0 Z " fill="#B69D78" transform="translate(122,4)"/>
</svg>
